<?xml version="1.0" standalone="no"?>
<!DOCTYPE svg PUBLIC "-//W3C//DTD SVG 20010904//EN"
 "http://www.w3.org/TR/2001/REC-SVG-20010904/DTD/svg10.dtd">
<svg version="1.0" xmlns="http://www.w3.org/2000/svg"
 width="800.000000pt" height="600.000000pt" viewBox="0 0 800.000000 600.000000"
 preserveAspectRatio="xMidYMid meet">

<g transform="translate(0.000000,600.000000) scale(0.100000,-0.100000)"
fill="#000000" stroke="none">
<path d="M0 3000 l0 -3000 4000 0 4000 0 0 3000 0 3000 -4000 0 -4000 0 0
-3000z m4669 2029 c128 -25 293 -83 411 -145 50 -26 88 -49 86 -51 -2 -2 -44
1 -92 8 -113 15 -292 6 -427 -22 -107 -21 -168 -44 -227 -83 -29 -20 -52 -25
-140 -29 -171 -9 -347 -67 -649 -216 -68 -34 -133 -61 -145 -61 -11 0 -43 7
-71 16 -68 21 -136 11 -225 -32 -77 -37 -218 -127 -237 -153 -23 -30 -15 30
11 86 42 90 106 175 210 278 212 211 482 350 764 395 161 25 185 27 427 28
160 0 221 -4 304 -19z m922 -603 c99 -149 188 -378 220 -561 16 -91 6 -424
-15 -519 -19 -86 -52 -154 -88 -180 -34 -24 -82 -13 -111 27 -20 26 -21 41
-22 315 -1 277 -2 290 -27 383 -61 223 -203 422 -398 554 -54 38 -67 51 -55
57 27 16 189 47 286 56 l94 9 38 -40 c20 -22 56 -67 78 -101z m-1775 25 c75
-34 94 -88 48 -135 -34 -33 -104 -54 -219 -67 -132 -14 -195 0 -195 43 0 31
28 65 85 102 111 74 202 93 281 57z m-532 -1628 c57 -82 102 -130 112 -121 3
4 -2 21 -12 40 -14 27 -4 21 59 -39 42 -40 95 -84 117 -99 51 -34 81 -89 104
-196 8 -35 -8 -36 -67 -7 -107 54 -245 178 -307 275 -48 77 -94 224 -70 224 5
0 34 -35 64 -77z m925 -383 c253 -7 315 -16 334 -48 4 -5 -32 -19 -79 -32 -48
-12 -97 -32 -113 -46 -35 -29 -73 -30 -215 -9 -108 16 -123 25 -177 99 -30 40
-38 62 -18 50 6 -3 127 -10 268 -14z m131 -200 c0 -29 -31 -55 -89 -75 -41
-13 -57 -14 -85 -5 -73 24 -45 64 60 84 100 20 114 20 114 -4z"/>
</g>
</svg>
